# xmcd CD database file
#
# Track frame offsets:
#	150
#	15965
#	29807
#	56041
#	70118
#	83550
#	97881
#	114592
#	134184
#	159349
#	177569
#
# Disc length: 2588 seconds
#
# Revision: 0
# Processed by: cddbd v1.5.1PL2 Copyright (c) Steve Scherf et al.
# Submitted via: CDex 1.51
#
DISCID=8f0a1a0b
DTITLE=Slavko Sigurnjak - Kordun place, Lika suze brise
DYEAR=1900
DGENRE=Narodne
TTITLE0=Mi smo momci licani
TTITLE1=Sanjao sam Kruskovacu
TTITLE2=Licki ojkan
TTITLE3=Moj sokole
TTITLE4=Skocio bih u Koranu
TTITLE5=Jedna kuca stara
TTITLE6=Hej, licanko
TTITLE7=Senjan Ivo
TTITLE8=Licki becarac
TTITLE9=Zasto smo se posvadjali
TTITLE10=Licko kolo - drmes
EXTD=
EXTT0=
EXTT1=
EXTT2=
EXTT3=
EXTT4=
EXTT5=
EXTT6=
EXTT7=
EXTT8=
EXTT9=
EXTT10=
PLAYORDER=
